<svg version="1" xmlns="http://www.w3.org/2000/svg" width="2084" height="2084" viewBox="0 0 1563.000000 1563.000000"><path d="M768.1 1.6c-3 .8-14.2 6.5-25 12.8-56.3 32.6-82.9 48-95.1 55.1-21.7 12.5-50.6 29.2-77.5 44.7-13.7 8-34.2 19.8-45.5 26.3-11.3 6.5-43.4 25.1-71.5 41.3-28 16.3-53.7 31.1-57 32.9-3.3 1.9-7.9 4.5-10.3 5.9-2.3 1.4-28.9 16.7-59 34.1-30.1 17.4-61.7 35.6-70.2 40.6-8.5 4.9-17.1 9.8-19 10.9-22.1 12.7-111.3 64.2-117 67.5-9.6 5.7-15.4 11.9-19.9 21.3l-3.6 7.5-.3 377c-.2 286.2 0 378.1.9 381.5 1.8 6.9 6.5 15.2 11.5 20.2 3.1 3.2 14 10.1 36.2 22.9 33.8 19.5 47.1 27.2 86.7 50.1 13.8 8 27 15.6 29.5 17 2.5 1.4 27.5 15.8 55.5 32 28.1 16.2 56.9 32.9 64 37 7.2 4.1 38 21.9 68.5 39.5s57.1 33 59 34.1c7.1 4 55 31.7 70.5 40.7 8.8 5.1 36.5 21.1 61.5 35.5 25 14.5 54.5 31.5 65.5 37.8 11 6.4 27 15.6 35.5 20.5s16 9.3 16.5 9.7c3.2 2.6 14.2 5.1 21.4 4.9 13.7-.4 8 2.5 92.1-46.2 19-11 35.9-20.8 37.6-21.7 6.3-3.6 43.1-24.8 48.9-28.2 3.3-2 8-4.7 10.5-6 2.5-1.4 9.6-5.5 15.8-9.2 6.2-3.6 13.2-7.7 15.5-8.9 2.3-1.3 12.8-7.3 23.2-13.4 10.5-6.1 26.4-15.3 35.5-20.5 9.1-5.2 25.1-14.5 35.5-20.5 10.5-6.1 35.2-20.3 55-31.8 19.8-11.4 37.6-21.6 39.5-22.7 10.9-6.4 22.9-13.3 25.6-14.8 1.6-1 14.9-8.6 29.5-17 26.4-15.3 54.7-31.7 60.4-35 5.8-3.3 37.3-21.5 62-35.8 13.8-7.9 27.5-15.8 30.5-17.5 3-1.7 8.2-4.7 11.5-6.7 3.3-2 12.7-7.4 20.8-12 17.5-10 23.2-15.1 28.5-25.9l3.7-7.5.3-377c.2-270.5 0-378.4-.8-381.6-1.9-7.7-6.2-15.3-12-21-4.5-4.5-15.6-11.3-62-38-31-17.9-67.3-38.7-80.5-46.4-13.2-7.6-25.8-14.9-28-16.1-2.2-1.2-12.5-7.2-23-13.3-10.4-6-20.9-12-23.1-13.3-3.5-2-32.8-19-43.7-25.3-13.9-8-42.9-24.7-45.7-26.4-11.3-6.4-51.3-29.5-61-35.2-6.3-3.7-13.5-7.9-16-9.2-2.5-1.4-21.6-12.4-42.5-24.5S956 95.3 920 74.5c-36-20.8-77.2-44.6-91.5-53C799.6 4.6 797 3.2 792.6 1.8 787 .1 773.9 0 768.1 1.6z"/></svg>